<svg viewBox="85.7 383.5 140 27" xmlns="http://www.w3.org/2000/svg"><path d="m100.1 410.5c9 0 14.4-5.4 14.4-13.5s-5.4-13.5-14.4-13.5-14.4 5.4-14.4 13.5 5.4 13.5 14.4 13.5z" fill="#e63e39"/><path d="m93.6 404.8c3.3 0 5.3-3.2 5.3-8s-2-8-5.3-8-5.3 3.2-5.3 8c0 4.9 2 8 5.3 8z" fill="#fff"/><path d="m106.5 404.8c3.3 0 5.3-3.2 5.3-8s-2-8-5.3-8-5.3 3.2-5.3 8c-.1 4.8 1.9 8 5.3 8z" fill="#fff"/><path d="m93.9 399.9c1.5 0 1.4 1.7 2.2 1 .7-.7-.7-2.2-2.2-2.2s-2.9 1.4-2.2 2.2c.7.7.6-1 2.2-1z" fill="#e63e39"/><path d="m106.3 399.9c1.5 0 1.4 1.7 2.2 1s-.7-2.2-2.2-2.2-2.9 1.4-2.2 2.2c.8.7.7-1 2.2-1z" fill="#e63e39"/><path d="m119.9 396.9c0 4.8 3.4 8.4 8.4 8.4 4.1 0 6.4-2.6 6.4-2.6l-1.6-2.1s-1.9 2.1-4.7 2.1c-3.4 0-5.4-2.7-5.4-5.8 0-3 2-5.6 5.4-5.6 2.6 0 4.4 1.7 4.4 1.7l1.4-2.2s-2-2.2-6-2.2c-4.7 0-8.3 3.6-8.3 8.3zm15.6 4.8c0 2.3 1.9 3.6 3.9 3.6 2.6 0 3.6-2.1 3.5-2.1v1.8h2.7v-7.3c0-2.9-1.8-4.6-4.8-4.6-2.8 0-4.6 1.4-4.6 1.4l1.1 2.1s1.5-1.1 3.2-1.1c1.3 0 2.2.5 2.2 2.1v.2h-.4c-1.8 0-6.8.3-6.8 3.9zm3-.1c0-1.6 2.4-1.8 3.9-1.8h.5v.3c0 1.4-1.1 3.1-2.6 3.1-1.3-.1-1.8-.8-1.8-1.6zm9.5 3.5h2.9v-5.1c0-.5 0-1 .1-1.5.4-1.5 1.3-2.7 2.9-2.7 1.4 0 1.6 1.1 1.6 2.3v6.9h2.9v-5c0-.5 0-1 .1-1.5.3-1.5 1.3-2.6 2.8-2.6 1.3 0 1.6 1 1.6 2.3v6.9h2.9v-7.5c0-3.1-1.4-4.4-3.8-4.4-1.8 0-3.3 1.1-4 2.4-.5-1.6-1.6-2.4-3.4-2.4s-3.2 1.3-3.8 2.4v-2.1h-2.8zm19.2-3.4c0 2.3 1.9 3.6 3.9 3.6 2.6 0 3.6-2.1 3.5-2.1v1.8h2.7v-7.3c0-2.9-1.8-4.6-4.8-4.6-2.8 0-4.6 1.4-4.6 1.4l1.1 2.1s1.5-1.1 3.2-1.1c1.3 0 2.2.5 2.2 2.1v.2h-.4c-1.8 0-6.8.3-6.8 3.9zm2.9-.1c0-1.6 2.4-1.8 3.9-1.8h.5v.3c0 1.4-1.1 3.1-2.6 3.1-1.2-.1-1.8-.8-1.8-1.6zm9.3-.1c0 3.3 2 3.7 3.6 3.7.5 0 .9-.1.9-.1v-2.5h-.4c-.8 0-1.2-.3-1.2-1.6v-12.1h-2.9zm5-2.2c0 3.6 2.9 6.1 6.4 6.1s6.4-2.5 6.4-6.1-2.9-6.1-6.4-6.1-6.4 2.5-6.4 6.1zm3 0c0-2.1 1.6-3.6 3.5-3.6s3.4 1.5 3.4 3.6c0 2.2-1.6 3.6-3.4 3.6-1.9 0-3.5-1.4-3.5-3.6zm10.8 0c0 3.6 2.9 6.1 6.4 6.1s6.4-2.5 6.4-6.1-2.9-6.1-6.4-6.1c-3.6 0-6.4 2.5-6.4 6.1zm2.9 0c0-2.1 1.6-3.6 3.5-3.6s3.4 1.5 3.4 3.6c0 2.2-1.6 3.6-3.4 3.6-1.9 0-3.5-1.4-3.5-3.6zm11.4 5.8h2.9v-5.3c0-.5 0-1.1.2-1.6.4-1.4 1.6-2.4 3.1-2.4s1.8 1 1.8 2.4v6.9h2.9v-7.5c0-3.1-1.5-4.4-4-4.4-2.3 0-3.6 1.4-4.1 2.4v-2.1h-2.8z" fill="#282828"/></svg>